<?xml version="1.0" standalone="no"?>
<!DOCTYPE svg PUBLIC "-//W3C//DTD SVG 20010904//EN"
 "http://www.w3.org/TR/2001/REC-SVG-20010904/DTD/svg10.dtd">
<svg version="1.0" xmlns="http://www.w3.org/2000/svg"
 width="1024.000000pt" height="1536.000000pt" viewBox="0 0 1024.000000 1536.000000"
 preserveAspectRatio="xMidYMid meet">

<g transform="translate(0.000000,1536.000000) scale(0.100000,-0.100000)"
fill="#000000" stroke="none">
<path d="M5063 11698 c-30 -10 -140 -94 -599 -459 -115 -91 -452 -358 -749
-594 -297 -235 -733 -582 -969 -769 -236 -188 -510 -405 -610 -484 -232 -183
-256 -208 -256 -264 0 -55 27 -108 67 -131 41 -23 91 -11 154 36 24 19 82 60
127 92 l84 58 -4 -1564 -3 -1564 26 -56 c36 -76 90 -133 157 -166 l57 -28
2580 0 2580 0 56 26 c71 34 133 95 165 162 l24 52 0 1568 c0 862 3 1567 6
1567 9 0 85 -54 173 -124 75 -60 87 -66 130 -66 79 0 121 48 121 138 0 34 -6
57 -20 75 -20 25 -479 395 -989 798 -128 101 -398 315 -600 474 -201 160 -503
399 -671 531 -168 132 -426 336 -575 453 -148 117 -288 222 -310 232 -44 20
-102 23 -152 7z m312 -469 c254 -196 592 -463 1271 -1004 248 -198 587 -467
753 -599 l301 -239 0 -995 c0 -547 -2 -993 -4 -991 -2 2 -27 38 -54 79 -163
243 -410 415 -676 470 l-56 11 -43 -35 c-58 -48 -195 -110 -282 -129 -115 -25
-185 -29 -295 -17 -155 17 -293 68 -400 148 -40 31 -59 30 -178 -4 -275 -80
-525 -308 -647 -592 -61 -142 -64 -175 -72 -777 l-6 -545 -64 0 -63 0 0 413
c1 500 10 676 44 810 22 86 92 251 128 299 32 44 -202 262 -379 352 -45 23
-104 47 -164 69 -13 4 -6 17 36 59 102 106 201 267 260 424 43 114 65 248 65
391 0 216 -49 388 -161 569 -63 102 -206 252 -293 309 -309 200 -777 183
-1073 -39 -201 -152 -359 -434 -394 -707 -28 -213 39 -515 158 -713 42 -70
148 -209 187 -245 l26 -25 -128 -61 c-71 -34 -168 -88 -216 -120 -107 -70
-257 -211 -337 -317 l-59 -79 1 993 0 993 272 216 c505 401 1480 1175 1887
1497 222 176 409 318 415 315 5 -4 114 -86 240 -184z m-1313 -1618 c203 -52
377 -189 474 -374 41 -79 80 -187 90 -253 l7 -47 -39 6 c-22 4 -48 7 -59 7
-13 0 -30 16 -48 45 -116 182 -374 197 -501 27 l-39 -52 -57 0 c-54 0 -58 2
-70 30 -16 39 -81 97 -136 122 -137 60 -293 13 -377 -115 -35 -53 -38 -55 -93
-62 -30 -3 -58 -4 -61 -1 -10 10 18 129 49 209 94 245 298 415 563 471 60 12
227 5 297 -13z m-444 -651 c64 -39 89 -118 58 -178 -52 -101 -184 -108 -240
-13 -70 120 65 262 182 191z m679 -1 c57 -28 77 -65 71 -137 -4 -48 -10 -60
-41 -89 -31 -28 -44 -33 -84 -33 -86 0 -143 57 -143 143 0 44 36 97 80 119 45
23 64 23 117 -3z m-1029 -213 c16 -61 68 -124 132 -160 47 -26 66 -31 145 -34
78 -4 99 -1 143 18 70 30 136 104 153 170 13 50 13 50 54 50 41 0 41 0 58 -54
21 -66 79 -133 143 -166 41 -21 63 -25 134 -25 73 0 93 4 142 28 70 34 121 90
145 156 19 54 21 55 87 44 l39 -6 -6 -56 c-14 -135 -97 -347 -181 -465 -72
-101 -195 -210 -289 -256 -180 -89 -366 -94 -534 -14 -249 118 -447 418 -489
741 l-6 51 43 10 c72 16 74 16 87 -32z m272 -1029 c236 -117 506 -105 727 33
71 45 8 -68 -96 -170 -86 -85 -183 -146 -248 -156 -92 -14 -185 34 -325 165
-77 73 -168 181 -142 170 5 -2 43 -21 84 -42z m3414 -394 c68 -22 136 -91 165
-166 21 -56 21 -70 21 -602 l0 -545 -80 0 -80 0 0 535 c0 591 2 576 -63 615
-31 19 -54 20 -512 20 -458 0 -481 -1 -512 -20 -70 -42 -68 -25 -68 -615 l0
-530 -83 -3 -83 -3 3 553 3 553 28 57 c31 62 90 121 146 146 55 24 157 28 631
24 360 -3 443 -6 484 -19z m-521 -1035 c33 -17 46 -39 47 -76 0 -49 -37 -82
-94 -82 -37 0 -48 5 -71 32 -21 25 -25 38 -21 62 12 61 83 94 139 64z"/>
<path d="M6217 9845 c-164 -31 -323 -120 -443 -247 -162 -171 -234 -374 -234
-658 0 -478 207 -801 590 -922 67 -21 94 -23 250 -23 161 1 181 3 252 27 262
88 461 302 538 579 46 166 51 454 10 612 -78 308 -294 536 -582 617 -98 28
-276 35 -381 15z"/>
<path d="M4113 8378 c-21 -12 -57 -31 -80 -43 -92 -49 -234 -38 -334 25 -54
35 -81 38 -109 10 -53 -53 -3 -148 104 -200 56 -28 80 -34 160 -38 110 -5 176
8 259 51 72 38 117 87 117 128 0 42 -15 65 -49 77 -24 9 -37 7 -68 -10z"/>
<path d="M3802 5170 c-46 -28 -68 -82 -53 -131 17 -57 62 -89 123 -89 44 0 54
4 84 34 28 28 34 42 34 75 0 107 -99 165 -188 111z"/>
<path d="M8500 4595 l0 -565 99 0 100 0 3 258 c3 245 4 259 26 304 40 80 131
109 219 69 75 -34 78 -47 81 -358 l3 -273 105 0 104 0 0 248 c0 278 -10 393
-39 449 -43 84 -126 133 -240 140 -97 7 -147 -7 -210 -57 l-51 -40 0 195 0
195 -100 0 -100 0 0 -565z"/>
<path d="M1082 4963 c33 -92 120 -339 193 -548 l133 -380 139 -3 138 -3 77
213 c42 117 128 357 192 533 63 176 118 328 121 338 7 16 -3 17 -113 17 l-121
0 -121 -372 c-67 -205 -130 -401 -142 -436 -11 -35 -22 -61 -25 -59 -2 3 -68
198 -147 433 l-143 429 -120 3 -120 3 59 -168z"/>
<path d="M5880 5045 c0 -47 0 -88 0 -91 0 -3 72 -5 160 -4 l160 1 0 -461 0
-460 110 0 110 0 0 458 -1 457 161 3 160 2 0 90 0 90 -430 0 -430 0 0 -85z"/>
<path d="M2317 4859 c-58 -14 -134 -56 -177 -99 -120 -120 -154 -356 -75 -527
34 -76 113 -155 188 -189 56 -26 72 -29 172 -29 120 0 175 14 251 66 36 24 94
94 94 112 0 4 -35 24 -77 45 l-78 39 -27 -32 c-39 -45 -86 -65 -154 -65 -101
0 -176 64 -185 160 l-4 35 278 3 277 2 0 68 c-1 167 -66 303 -176 368 -83 49
-208 66 -307 43z m194 -182 c36 -24 79 -96 79 -134 l0 -23 -176 0 -176 0 7 38
c17 90 79 141 176 142 42 0 65 -6 90 -23z"/>
<path d="M3156 4854 c-177 -56 -278 -229 -263 -449 18 -258 181 -406 431 -393
112 6 183 36 248 106 41 44 88 135 76 148 -3 2 -47 10 -99 16 -73 8 -94 8 -97
-2 -10 -29 -67 -80 -100 -90 -54 -15 -81 -12 -130 11 -58 29 -96 89 -112 177
-18 104 3 206 53 261 28 30 94 61 132 61 51 0 113 -35 132 -74 19 -40 19 -40
146 -30 46 4 77 11 77 18 0 28 -52 118 -90 156 -67 67 -135 93 -255 97 -71 2
-114 -2 -149 -13z"/>
<path d="M4472 4857 c-18 -7 -55 -29 -82 -49 l-50 -37 0 39 0 39 -100 3 -100
3 0 -412 0 -413 104 0 105 0 3 263 c3 290 8 314 71 359 43 31 130 36 177 10
71 -39 75 -54 79 -359 l3 -273 106 0 105 0 -6 303 c-7 333 -13 373 -68 440
-51 62 -118 90 -224 94 -55 1 -103 -2 -123 -10z"/>
<path d="M5295 4857 c-202 -67 -299 -235 -275 -476 26 -252 236 -410 482 -362
132 26 233 105 291 229 28 60 32 78 35 179 4 95 1 121 -18 178 -21 63 -69 138
-114 178 -12 10 -50 32 -86 50 -59 28 -75 32 -170 34 -67 2 -120 -2 -145 -10z
m177 -167 c49 -14 93 -52 121 -104 18 -34 22 -57 22 -141 0 -85 -4 -107 -24
-148 -35 -72 -79 -101 -160 -105 -89 -4 -134 22 -174 99 -23 45 -29 69 -30
135 -3 104 16 167 64 215 53 53 110 68 181 49z"/>
<path d="M7003 4859 c-70 -17 -162 -86 -210 -156 -120 -180 -87 -481 67 -603
21 -17 65 -43 97 -58 53 -25 68 -27 174 -27 116 0 117 0 195 40 60 31 87 52
116 90 l38 50 -82 41 -82 41 -24 -29 c-42 -49 -96 -71 -168 -66 -103 6 -164
60 -180 157 l-7 41 282 0 281 0 0 64 c0 189 -81 338 -217 398 -56 24 -211 34
-280 17z m207 -181 c47 -32 71 -68 77 -116 l6 -42 -177 0 c-170 0 -176 1 -176
20 0 27 26 89 48 114 45 50 164 63 222 24z"/>
<path d="M7868 4857 c-107 -41 -193 -121 -228 -214 -31 -82 -43 -188 -30 -266
36 -229 161 -350 376 -364 172 -12 309 67 369 211 9 21 14 40 12 42 -4 5 -141
23 -174 24 -14 0 -28 -11 -40 -31 -35 -59 -117 -90 -190 -70 -53 15 -108 72
-129 135 -23 68 -23 196 1 254 54 133 229 162 303 50 l26 -41 75 7 c41 3 85 6
99 6 22 0 24 3 18 33 -15 74 -106 171 -201 212 -54 24 -235 31 -287 12z"/>
<path d="M3770 4443 l0 -413 100 0 100 0 0 409 0 410 -100 3 -100 3 0 -412z"/>
</g>
</svg>
