<?xml version="1.0" standalone="no"?>
<!DOCTYPE svg PUBLIC "-//W3C//DTD SVG 20010904//EN"
 "http://www.w3.org/TR/2001/REC-SVG-20010904/DTD/svg10.dtd">
<svg version="1.0" xmlns="http://www.w3.org/2000/svg"
 width="1024.000000pt" height="1536.000000pt" viewBox="0 0 1024.000000 1536.000000"
 preserveAspectRatio="xMidYMid meet">

<g transform="translate(0.000000,1536.000000) scale(0.100000,-0.100000)"
fill="#000000" stroke="none">
<path d="M4810 12289 c-903 -72 -1734 -478 -2341 -1144 -409 -449 -722 -1053
-839 -1622 -99 -476 -104 -988 -14 -1414 151 -717 455 -1308 1213 -2354 317
-437 829 -1091 1181 -1510 69 -82 162 -193 206 -245 325 -388 698 -798 762
-838 97 -61 182 -65 264 -13 69 44 362 367 849 936 440 515 817 984 1133 1408
1120 1509 1465 2280 1466 3275 0 503 -86 922 -281 1377 -257 595 -658 1097
-1183 1480 -357 260 -776 453 -1221 564 -352 88 -837 128 -1195 100z m557
-460 c1105 -90 2055 -735 2556 -1735 141 -282 230 -569 283 -919 27 -172 27
-668 1 -835 -46 -292 -103 -509 -189 -718 -28 -67 -52 -122 -55 -122 -3 0 -42
27 -86 61 -103 77 -265 155 -432 209 -71 23 -136 47 -143 53 -18 14 -52 82
-52 102 0 8 17 34 39 58 60 65 126 170 161 256 32 76 34 79 85 100 132 55 238
234 252 424 6 94 -12 176 -52 238 l-24 37 25 88 c47 170 42 350 -12 459 -14
27 -45 75 -69 106 l-44 56 29 28 c60 57 75 123 38 170 -32 41 -79 56 -175 56
l-84 0 -33 37 c-63 69 -211 145 -381 194 -71 20 -101 23 -270 23 -166 0 -201
-3 -275 -23 -133 -35 -309 -128 -410 -214 -174 -150 -309 -395 -311 -564 -1
-54 2 -69 21 -89 22 -23 22 -24 6 -97 -25 -114 -46 -321 -46 -454 0 -298 48
-506 159 -693 45 -77 156 -200 231 -257 48 -36 51 -41 48 -78 l-3 -40 -110
-27 c-127 -31 -167 -44 -256 -89 -259 -131 -402 -312 -469 -595 -10 -38 -19
-63 -22 -55 -3 8 -17 56 -33 105 -38 126 -123 295 -199 396 -120 159 -321 322
-489 399 -37 17 -67 33 -67 35 0 3 22 38 49 78 79 117 136 246 156 357 12 63
16 69 58 88 84 38 166 157 202 297 9 34 15 102 15 162 0 125 -22 194 -78 245
-35 31 -36 35 -24 60 7 15 22 62 33 105 26 96 31 307 10 393 -18 73 -71 183
-116 244 -43 55 -138 121 -189 130 -24 5 -41 16 -55 39 -11 18 -46 57 -78 88
-243 236 -660 333 -1029 239 -185 -47 -366 -149 -468 -262 -45 -49 -67 -65
-113 -80 -72 -25 -127 -63 -191 -133 -142 -155 -188 -398 -123 -647 l28 -108
-40 -42 c-63 -68 -80 -117 -85 -238 -5 -127 13 -213 65 -318 60 -121 164 -211
245 -212 22 0 29 -7 43 -47 9 -27 39 -94 66 -151 l50 -102 -48 -68 c-54 -76
-45 -69 -172 -141 -140 -78 -241 -153 -355 -263 -55 -54 -101 -97 -102 -95 -8
8 -88 221 -117 312 -156 485 -183 1042 -76 1563 181 876 747 1628 1551 2061
355 191 812 328 1213 364 93 8 413 6 532 -4z m-1355 -1602 c148 -42 306 -140
391 -242 99 -118 170 -272 202 -436 19 -94 33 -389 19 -389 -5 0 -21 21 -36
45 -33 55 -126 118 -199 135 -75 18 -177 8 -242 -24 -49 -24 -126 -95 -152
-140 -9 -15 -16 -16 -63 -5 -53 11 -131 6 -163 -12 -13 -7 -25 3 -55 44 -150
200 -460 192 -591 -16 -24 -38 -25 -39 -70 -32 -68 10 -73 13 -63 40 11 29 74
344 95 475 8 52 15 147 15 211 l0 115 53 45 c134 115 266 180 425 209 26 5
115 7 197 5 122 -3 166 -8 237 -28z m3162 -748 c20 -22 42 -52 47 -67 6 -15
19 -106 29 -202 20 -196 43 -310 68 -339 33 -37 58 -35 105 8 58 53 97 62 131
28 37 -37 50 -96 36 -165 -31 -149 -113 -242 -213 -242 -41 0 -51 -11 -67 -69
-59 -222 -268 -444 -490 -522 -46 -16 -96 -24 -170 -27 -195 -8 -328 47 -481
198 -155 153 -225 313 -251 574 -12 126 -3 290 27 501 23 153 19 145 68 145
120 0 337 52 505 122 40 17 75 28 78 25 3 -2 -2 -23 -11 -45 -22 -54 -16 -84
18 -100 24 -12 39 -11 103 3 132 29 276 101 379 189 17 14 35 25 41 26 7 0 28
-18 48 -41z m-3691 -320 c47 -13 106 -63 123 -106 17 -39 18 -111 3 -150 -24
-64 -109 -123 -179 -123 -70 0 -155 59 -179 123 -6 16 -11 51 -11 79 0 74 35
129 102 162 57 28 83 31 141 15z m902 -8 c76 -35 115 -95 115 -176 0 -81 -39
-141 -115 -176 -75 -35 -168 -16 -227 47 -34 37 -48 74 -48 130 0 139 149 234
275 175z m-1557 -126 c33 -14 97 -29 140 -34 44 -5 84 -11 90 -14 5 -4 12 -32
16 -62 14 -121 109 -242 224 -285 78 -30 215 -25 284 9 114 56 195 170 207
293 5 55 9 62 31 68 14 4 45 4 70 1 l45 -6 7 -65 c15 -132 107 -256 224 -300
67 -25 190 -28 251 -7 139 48 229 155 256 305 l12 67 46 3 c45 3 47 1 58 -29
26 -76 0 -228 -53 -307 -37 -56 -67 -73 -107 -62 -24 7 -32 5 -43 -13 -8 -12
-18 -40 -21 -62 -39 -228 -134 -417 -285 -566 -89 -87 -198 -147 -315 -175
-96 -22 -264 -15 -360 16 -161 50 -345 187 -450 334 -62 87 -128 225 -165 344
l-33 102 -51 0 c-57 0 -120 25 -153 61 -12 13 -34 51 -49 84 -46 100 -45 263
3 310 21 21 50 19 121 -10z m307 -1173 c141 -131 284 -210 472 -258 123 -32
300 -35 408 -9 86 21 220 82 284 129 27 20 51 33 55 29 3 -3 6 -36 6 -72 -1
-121 -71 -267 -169 -351 -97 -85 -270 -149 -399 -150 -282 -1 -572 176 -725
442 -33 57 -59 152 -51 187 8 37 37 121 42 121 2 0 37 -30 77 -68z m3945 -45
c0 -7 18 -48 40 -92 22 -44 40 -85 40 -92 0 -18 -156 -178 -207 -212 -59 -39
-142 -70 -218 -82 -76 -12 -205 9 -281 46 -66 32 -148 105 -184 164 l-28 45
49 46 c31 29 51 57 55 78 5 26 10 31 23 26 106 -47 312 -58 447 -24 43 11 117
39 164 64 96 49 100 51 100 33z"/>
<path d="M4995 11101 c-60 -27 -103 -67 -133 -125 l-27 -51 -3 -375 c-3 -408
-1 -436 50 -511 50 -74 87 -93 186 -98 l85 -3 -7 -167 c-5 -142 -4 -170 10
-189 32 -46 89 -18 160 81 168 233 195 265 225 271 18 3 74 6 126 6 l95 0 95
100 c217 228 477 347 811 372 l153 11 -3 251 -3 251 -30 55 c-33 60 -96 114
-153 130 -24 6 -310 10 -817 10 -733 0 -782 -2 -820 -19z"/>
<path d="M6141 9024 c-32 -23 -51 -74 -51 -139 0 -97 33 -145 98 -145 91 0
128 189 52 270 -31 34 -64 38 -99 14z"/>
<path d="M6781 9004 c-66 -46 -69 -213 -4 -264 82 -64 174 51 143 180 -21 86
-82 123 -139 84z"/>
<path d="M6253 8434 c-50 -50 -11 -142 91 -211 132 -90 304 -79 420 27 86 79
107 159 51 196 -25 17 -35 15 -145 -25 -91 -34 -259 -21 -323 24 -32 22 -65
18 -94 -11z"/>
<path d="M3510 8456 c-46 -26 -120 -152 -120 -207 0 -61 68 -77 120 -29 18 17
36 30 40 30 5 0 31 -11 59 -26 142 -71 354 -69 499 5 54 27 63 27 97 -9 43
-45 98 -36 110 18 15 71 -88 232 -149 232 -31 0 -56 -24 -56 -54 0 -31 -18
-45 -82 -62 -115 -30 -252 -28 -381 7 -30 8 -37 14 -36 32 4 42 -1 54 -26 65
-33 15 -44 15 -75 -2z"/>
</g>
</svg>
